<?xml version="1.0" encoding="UTF-8" standalone="no"?>
<svg
   xmlns:dc="http://purl.org/dc/elements/1.1/"
   xmlns:cc="http://creativecommons.org/ns#"
   xmlns:rdf="http://www.w3.org/1999/02/22-rdf-syntax-ns#"
   xmlns:svg="http://www.w3.org/2000/svg"
   xmlns="http://www.w3.org/2000/svg"
   xmlns:sodipodi="http://sodipodi.sourceforge.net/DTD/sodipodi-0.dtd"
   xmlns:inkscape="http://www.inkscape.org/namespaces/inkscape"
   viewBox="-80 -80 220 360"
   version="1.1"
   id="svg79"
   sodipodi:docname="dualportRegstemp.svg"
   inkscape:version="0.92.4 (5da689c313, 2019-01-14)">
  <metadata
     id="metadata83">
    <rdf:RDF>
      <cc:Work
         rdf:about="">
        <dc:format>image/svg+xml</dc:format>
        <dc:type
           rdf:resource="http://purl.org/dc/dcmitype/StillImage" />
      </cc:Work>
    </rdf:RDF>
  </metadata>
  <defs
     id="defs81" />
  <sodipodi:namedview
     showgrid="true"
     id="namedview4"
     inkscape:zoom="2.6222222"
     inkscape:cx="169.77956"
     inkscape:cy="190.5601"
     inkscape:window-width="2560"
     inkscape:window-height="1057"
     inkscape:window-x="-8"
     inkscape:window-y="-8"
     inkscape:window-maximized="1"
     inkscape:current-layer="svg79">
    <inkscape:grid
       type="xygrid"
       empspacing="4"
       spacingx="5"
       spacingy="5"
       id="grid2" />
  </sodipodi:namedview>
  <rect
     x="-75"
     y="-75"
     width="210"
     height="355"
     id="rect6"
     style="fill:#55ff55;fill-opacity:0.78431373;stroke:#000000;stroke-width:9.50597858" />
  <text
     id="label"
     font-size="24"
     x="-14.919075"
     y="251.47479"
     style="font-size:20.80530548px;text-anchor:middle;fill:#000000;stroke-width:0.86688775"
     transform="scale(0.92536041,1.08066)">REGISTER</text>
  <g
     id="g12"
     transform="translate(-72.457625,62.161017)">
    <circle
       id="pin:saved,temp,index,and pointer"
       cx="-5.0529661"
       cy="-0.57203388"
       r="3"
       style="fill:#0000b2" />
    <text
       font-size="18"
       x="4"
       y="6"
       id="text10"
       style="font-size:18px;fill:#808080">s,t,i,p data</text>
  </g>
  <g
     id="g17"
     transform="translate(-72.457627,-72.838984)">
    <circle
       id="pin:mhdata"
       cx="-5.0529661"
       cy="20.476694"
       r="3"
       style="fill:#0000b2" />
    <text
       font-size="18"
       x="4"
       y="26"
       id="text15"
       style="font-size:18px;fill:#808080">mhdata</text>
  </g>
  <g
     id="g22"
     transform="translate(-71.694915,-66.355932)">
    <circle
       id="pin:mldata"
       cx="-5.9110169"
       cy="40.095341"
       r="3"
       style="fill:#0000b2" />
    <text
       font-size="18"
       x="3.618644"
       y="45.618645"
       id="text20"
       style="font-size:18px;fill:#808080">mldata</text>
  </g>
  <g
     id="g27"
     transform="translate(-71.313559,-64.830509)">
    <circle
       id="pin:dqdata"
       cx="-6.1016951"
       cy="60"
       r="3"
       style="fill:#0000b2" />
    <text
       font-size="18"
       x="4"
       y="66"
       id="text25"
       style="font-size:18px;fill:#808080">dqdata</text>
  </g>
  <g
     id="g32"
     transform="translate(-70.932203,-62.161017)">
    <circle
       id="pin:drdata"
       cx="-6.8644066"
       cy="80"
       r="3"
       style="fill:#0000b2" />
    <text
       font-size="18"
       x="4"
       y="86"
       id="text30"
       style="font-size:18px;fill:#808080">drdata</text>
  </g>
  <g
     id="g37"
     transform="translate(-69.788136,72.838983)">
    <circle
       id="pin:src1addr"
       cx="-7.2457628"
       cy="100.19068"
       r="3"
       style="fill:#0000b2" />
    <text
       font-size="18"
       x="4"
       y="106"
       id="text35"
       style="font-size:18px;fill:#808080">src1addr</text>
  </g>
  <g
     id="g42"
     transform="translate(-69.025424,76.652542)">
    <circle
       id="pin:src2addr"
       cx="-8.0084743"
       cy="120.66737"
       r="3"
       style="fill:#0000b2" />
    <text
       font-size="18"
       x="4"
       y="126"
       id="text40"
       style="font-size:18px;fill:#808080">src2addr</text>
  </g>
  <g
     id="g47"
     transform="translate(-68.644068,83.135593)">
    <circle
       id="pin:src3addr"
       cx="-8.7711868"
       cy="140"
       r="3"
       style="fill:#0000b2" />
    <text
       font-size="18"
       x="4"
       y="146"
       id="text45"
       style="font-size:18px;fill:#808080">src3addr</text>
  </g>
  <g
     id="g52"
     transform="translate(-70.932203,-46.525424)">
    <circle
       id="pin:waddr"
       cx="-6.8644066"
       cy="171.25"
       r="3"
       style="fill:#0000b2" />
    <text
       font-size="18"
       x="2.2838981"
       y="175.34322"
       id="text50"
       style="font-size:18px;fill:#808080">waddr</text>
  </g>
  <g
     id="g57"
     transform="matrix(0.8313855,0,0,1.1640447,-73.726182,-168.98922)">
    <ellipse
       id="pin:muldivclock"
       cx="-4.6257463"
       cy="179.18097"
       style="fill:#0000b2;stroke-width:1.153736"
       rx="3.99332"
       ry="3" />
    <text
       font-size="18"
       x="20.471939"
       y="184.36194"
       id="text55"
       style="font-size:18px;fill:#808080">muldivclock</text>
  </g>
  <g
     id="g62"
     transform="translate(-71.885593,-112.30932)">
    <circle
       id="pin:s,t,i,p clock"
       cx="-5.4343224"
       cy="208.77118"
       r="3"
       style="fill:#0000b2" />
    <text
       font-size="18"
       x="19.501194"
       y="167.43185"
       id="text60"
       style="font-size:17.83271027px;fill:#808080;stroke-width:0.99070609"
       transform="scale(0.80293828,1.2454257)">s,t,i,p clock</text>
  </g>
  <g
     id="g67"
     transform="translate(77.496561,-6.9761033)">
    <circle
       id="pin:src1"
       cx="60"
       cy="0"
       r="3"
       style="fill:#b20000" />
    <text
       font-size="18"
       x="56"
       y="6"
       id="text65"
       style="font-size:18px;text-anchor:end;fill:#808080">src1</text>
  </g>
  <g
     id="g72"
     transform="translate(76.055732,79.210337)">
    <circle
       id="pin:src2"
       cx="60"
       cy="20"
       r="3"
       style="fill:#b20000" />
    <text
       font-size="18"
       x="56"
       y="26"
       id="text70"
       style="font-size:18px;text-anchor:end;fill:#808080">src2</text>
  </g>
  <g
     id="g77"
     transform="translate(76.213694,175.04237)">
    <circle
       id="pin:src3"
       cx="60"
       cy="40"
       r="3"
       style="fill:#b20000" />
    <text
       font-size="18"
       x="56"
       y="46"
       id="text75"
       style="font-size:18px;text-anchor:end;fill:#808080">src3</text>
  </g>
  <path
     style="fill:none;stroke:#000000;stroke-width:1px;stroke-linecap:butt;stroke-linejoin:miter;stroke-opacity:1"
     d="m -73.728814,83.38983 c 0.49435,0.96045 0.988701,1.9209 1.483051,2.88136 0,0.25423 -0.113698,0.53531 0,0.76271 0.113698,0.22739 0.582939,-0.17978 0.762712,0 0.08989,0.0899 -0.08989,0.29147 0,0.38135 0.179773,0.17978 0.582939,-0.17977 0.762712,0 0.08989,0.0899 -0.08989,0.29147 0,0.38136 0.179773,0.17977 0.582939,-0.17977 0.762711,0 0.08989,0.0899 -0.08989,0.29147 0,0.38136 0.08989,0.0899 0.254238,0 0.381356,0 0.254238,0 0.535316,-0.1137 0.762712,0 0.113699,0.0568 -0.08989,0.29146 0,0.38135 0.08989,0.0899 0.29147,-0.0899 0.381356,0 0.08989,0.0899 -0.08989,0.29147 0,0.38136 0.179773,0.17977 0.582939,-0.17978 0.762712,0 0.508475,0.50847 -0.635593,0.38135 0.381356,0.38135 0.127119,0 0.324507,-0.1137 0.381356,0 0.113698,0.2274 -0.113698,0.53532 0,0.76272 0.07544,0.15088 0.764681,-0.1897 1.144068,0 0.113698,0.0568 -0.08989,0.29146 0,0.38135 0.179773,0.17977 0.582939,-0.17977 0.762712,0 0.08989,0.0899 -0.08989,0.29147 0,0.38136 0.179772,0.17977 0.582939,-0.17978 0.762711,0 0.08989,0.0899 -0.08989,0.29147 0,0.38135 0.179773,0.17978 0.582939,-0.17977 0.762712,0 0.08989,0.0899 -0.113698,0.32451 0,0.38136 0.227397,0.1137 0.508475,0 0.762712,0 0.127119,0 0.29147,-0.0899 0.381356,0 0.08989,0.0899 -0.08989,0.29147 0,0.38135 0.179773,0.17978 0.582939,-0.17977 0.762712,0 0.08989,0.0899 0.127119,0.38136 0,0.38136 -0.127119,0 0,-0.50847 0,-0.38136 0,0.6356 0,1.27119 0,1.90678 0,0.14005 0.01535,1.51008 0,1.52543 -0.08989,0.0899 -0.29147,-0.0899 -0.381356,0 -0.09177,0.0918 0.09177,1.43366 0,1.52542 -0.08989,0.0899 -0.291469,-0.0899 -0.381356,0 -0.08989,0.0899 0,0.25424 0,0.38136 -0.254237,0 -0.535315,-0.1137 -0.762712,0 -0.113698,0.0569 0.08989,0.29147 0,0.38135 -0.08989,0.0899 -0.291469,-0.0899 -0.381356,0 -0.08989,0.0899 0.08989,0.29147 0,0.38136 -0.08989,0.0899 -0.291469,-0.0899 -0.381356,0 -0.08989,0.0899 0.08989,0.29147 0,0.38136 -0.08989,0.0899 -0.291469,-0.0899 -0.381356,0 -0.08989,0.0899 0.08989,0.29147 0,0.38135 -0.08989,0.0899 -0.324506,-0.1137 -0.381355,0 -0.113699,0.2274 0.113698,0.53532 0,0.76271 -0.05685,0.1137 -0.29147,-0.0899 -0.381356,0 -0.08989,0.0899 0,0.25424 0,0.38136 -0.127119,0 -0.29147,-0.0899 -0.381356,0 -0.08989,0.0899 0.113698,0.32451 0,0.38136 -0.227397,0.11369 -0.535315,-0.1137 -0.762712,0 -0.113699,0.0568 0.08989,0.29146 0,0.38135 -0.08989,0.0899 -0.29147,-0.0899 -0.381356,0 -0.08989,0.0899 0.08989,0.29147 0,0.38136 -0.08989,0.0899 -0.29147,-0.0899 -0.381356,0 -0.08989,0.0899 0.08989,0.29147 0,0.38135 -0.08989,0.0899 -0.29147,-0.0899 -0.381356,0 -0.08989,0.0899 0.08989,0.29147 0,0.38136 -0.08989,0.0899 -0.324507,-0.1137 -0.381356,0 -0.113698,0.2274 0.113698,0.53531 0,0.76271 -0.05685,0.1137 -0.291469,-0.0899 -0.381356,0 -0.08989,0.0899 0.08989,0.29147 0,0.38136 -0.08989,0.0899 -0.291469,-0.0899 -0.381356,0 -0.635593,0.63559 1.398305,0.38135 -0.762712,0.38135 -1.016949,0 0.127119,-0.12712 -0.381356,0.38136 -0.08989,0.0899 -0.291469,-0.0899 -0.381356,0 -0.08989,0.0899 0.08989,0.29147 0,0.38135 -0.08989,0.0899 -0.291469,-0.0899 -0.381356,0 -0.08989,0.0899 -0.113698,0.43821 0,0.38136 0.596307,-0.29815 1.073447,-0.79096 1.61017,-1.18644"
     id="path87"
     inkscape:connector-curvature="0" />
  <path
     style="fill:none;stroke:#000000;stroke-width:1px;stroke-linecap:butt;stroke-linejoin:miter;stroke-opacity:1"
     d="m -70,30 c -0.282486,0.0706 -0.776836,0.49435 -0.847458,0.21186 C -70.918079,29.92938 -70.260439,29.86978 -70,30 c 0.836559,0.41828 1.396334,1.26458 2.20339,1.73729 0.219377,0.12849 0.535315,-0.1137 0.762712,0 0.113698,0.0568 -0.08989,0.29147 0,0.38135 0.190678,0.19068 0.95339,-0.19067 1.144068,0 0.08989,0.0899 -0.08989,0.29147 0,0.38136 0.190677,0.19068 0.953389,-0.19068 1.144067,0 0.08989,0.0899 -0.113698,0.32451 0,0.38136 0.227397,0.11369 0.508475,0 0.762712,0 0.127119,0 0.29147,-0.0899 0.381356,0 0.08989,0.0899 -0.08989,0.29147 0,0.38135 0.08989,0.0899 0.29147,-0.0899 0.381356,0 0.08989,0.0899 -0.08989,0.29147 0,0.38136 0.08989,0.0899 0.29147,-0.0899 0.381356,0 0.200992,0.20099 0.180364,0.56172 0.381356,0.76271 0.08989,0.0899 0.291469,-0.0899 0.381356,0 0.08989,0.0899 -0.08989,0.29147 0,0.38136 0.08989,0.0899 0.254237,0 0.381356,0 0.254237,0 0.535315,-0.1137 0.762712,0 0.113698,0.0568 -0.08989,0.29146 0,0.38135 0.08989,0.0899 0.291469,-0.0899 0.381356,0 0.08989,0.0899 0,0.25424 0,0.38136 0.127118,0 0.291469,-0.0899 0.381355,0 0.01227,0.0123 0,1.05158 0,1.14406 0,0.12712 0.08989,0.29147 0,0.38136 -0.08989,0.0899 -0.324506,-0.1137 -0.381355,0 -0.189694,0.37939 0.15088,1.06863 0,1.14407 -0.227397,0.1137 -0.535316,-0.1137 -0.762712,0 -0.227397,0.1137 0.179773,0.58294 0,0.76271 -0.08989,0.0899 -0.29147,-0.0899 -0.381356,0 -0.190678,0.19068 0.190678,0.95339 0,1.14407 -0.08989,0.0899 -0.324507,-0.1137 -0.381356,0 -0.113699,0.2274 0,0.50847 0,0.76271 0,0.12712 0.08989,0.29147 0,0.38136 -0.08989,0.0899 -0.29147,-0.0899 -0.381356,0 -0.179773,0.17977 0.179773,0.58294 0,0.76271 -0.08989,0.0899 -0.29147,-0.0899 -0.381356,0 -0.08989,0.0899 0.08989,0.29147 0,0.38135 -1.016949,0 0.127119,-0.12711 -0.381356,0.38136 -0.08989,0.0899 -0.291469,-0.0899 -0.381356,0 -0.08989,0.0899 0.113698,0.32451 0,0.38136 -0.227397,0.11369 -0.582939,-0.17978 -0.762712,0 -0.179773,0.17977 0.113699,0.53531 0,0.76271 -0.05685,0.1137 -0.291469,-0.0899 -0.381356,0 -0.08989,0.0899 0.08989,0.29147 0,0.38135 -0.08989,0.0899 -0.291469,-0.0899 -0.381356,0 -0.08989,0.0899 0.08989,0.29147 0,0.38136 -0.08989,0.0899 -0.291469,-0.0899 -0.381356,0 -0.08989,0.0899 0.08989,0.29147 0,0.38136 -0.08989,0.0899 -0.291469,-0.0899 -0.381355,0 -0.08989,0.0899 0.08989,0.29146 0,0.38135 -0.08989,0.0899 -0.29147,-0.0899 -0.381356,0 -0.08989,0.0899 0.08989,0.29147 0,0.38136 -0.08989,0.0899 -0.29147,-0.0899 -0.381356,0 -0.190678,0.19068 0.190678,0.95339 0,1.14407 -0.179773,0.17977 -0.535315,-0.1137 -0.762712,0 -0.113699,0.0568 0.08989,0.29146 0,0.38135 -0.08989,0.0899 -0.29147,-0.0899 -0.381356,0 -0.08989,0.0899 0.08989,0.29147 0,0.38136 -0.08989,0.0899 -0.29147,-0.0899 -0.381356,0 -0.179773,0.17977 0.179773,0.58294 0,0.76271 -0.08989,0.0899 -0.29147,-0.0899 -0.381356,0 -0.08989,0.0899 0.08989,0.29147 0,0.38135 -0.08989,0.0899 -0.291469,-0.0899 -0.381356,0 -0.08989,0.0899 0,0.25424 0,0.38136 C -69.293785,49.51977 -69.646893,49.75989 -70,50"
     id="path89"
     inkscape:connector-curvature="0" />
  <rect
     style="fill:#000000;fill-opacity:0.78431373"
     id="rect91"
     width="120"
     height="5"
     x="-70"
     y="150" />
  <rect
     style="fill:#000000;fill-opacity:0.78431373"
     id="rect97"
     width="5"
     height="360"
     x="45"
     y="-80" />
</svg>
