<?xml version="1.0" encoding="UTF-8" standalone="no"?>
<svg
   xmlns:dc="http://purl.org/dc/elements/1.1/"
   xmlns:cc="http://creativecommons.org/ns#"
   xmlns:rdf="http://www.w3.org/1999/02/22-rdf-syntax-ns#"
   xmlns:svg="http://www.w3.org/2000/svg"
   xmlns="http://www.w3.org/2000/svg"
   xmlns:sodipodi="http://sodipodi.sourceforge.net/DTD/sodipodi-0.dtd"
   xmlns:inkscape="http://www.inkscape.org/namespaces/inkscape"
   viewBox="-80 -80 220 900"
   version="1.1"
   id="svg204"
   sodipodi:docname="Instruction_Decoder.svg"
   inkscape:version="0.92.4 (5da689c313, 2019-01-14)">
  <metadata
     id="metadata208">
    <rdf:RDF>
      <cc:Work
         rdf:about="">
        <dc:format>image/svg+xml</dc:format>
        <dc:type
           rdf:resource="http://purl.org/dc/dcmitype/StillImage" />
      </cc:Work>
    </rdf:RDF>
  </metadata>
  <defs
     id="defs206" />
  <sodipodi:namedview
     showgrid="true"
     id="namedview4"
     inkscape:zoom="0.37083822"
     inkscape:cx="-38.183619"
     inkscape:cy="-244.24946"
     inkscape:window-width="2560"
     inkscape:window-height="1057"
     inkscape:window-x="-8"
     inkscape:window-y="-8"
     inkscape:window-maximized="1"
     inkscape:current-layer="svg204">
    <inkscape:grid
       type="xygrid"
       empspacing="4"
       spacingx="5"
       spacingy="5"
       id="grid2" />
  </sodipodi:namedview>
  <rect
     x="-438.85812"
     y="40"
     width="478.85812"
     height="1680"
     id="rect6"
     style="fill:#ccff00;fill-opacity:0.78431373;stroke:#000000;stroke-width:16.80102158" />
  <text
     id="label"
     font-size="24"
     x="30"
     y="-20"
     style="font-size:24px;text-anchor:middle;fill:#000000" />
  <text
     font-size="24"
     x="-285.01901"
     y="256.8172"
     id="text1084"
     style="font-size:141.2431488px;text-anchor:middle;fill:#000000;stroke-width:5.88513136"
     transform="scale(1.0736067,0.9314398)">ID</text>
  <g
     id="g12"
     transform="matrix(2.0263941,0,0,3.406372,-446.20076,940.13897)">
    <circle
       id="pin:Instruction"
       cx="0"
       cy="0"
       r="3"
       style="fill:#0000b2" />
    <text
       font-size="18"
       x="7.7638869"
       y="6"
       id="text10"
       style="font-size:18px;fill:#808080">Instruction</text>
  </g>
  <g
     id="g17"
     transform="matrix(1.8243213,0,0,1.8885756,-80.639862,136.22743)">
    <circle
       id="pin:rd"
       cx="65.748596"
       cy="0"
       r="3"
       style="fill:#b20000" />
    <text
       font-size="18"
       x="61.235691"
       y="5.6555901"
       id="text15"
       style="font-size:20.20312309px;text-anchor:end;fill:#808080;stroke-width:1.12239575"
       transform="scale(0.95040828,1.0521794)">rd</text>
  </g>
  <g
     id="g22"
     transform="matrix(1.8864725,0,0,1.7192285,-72.790062,145.32424)">
    <circle
       id="pin:rs1"
       cx="60"
       cy="24.766949"
       r="3"
       style="fill:#b20000" />
    <text
       font-size="18"
       x="56"
       y="30.766949"
       id="text20"
       style="font-size:18px;text-anchor:end;fill:#808080">rs1</text>
  </g>
  <g
     id="g27"
     transform="matrix(1.8864725,0,0,1.7192285,-74.588562,320.7074)">
    <circle
       id="pin:imm(16bit)"
       cx="60"
       cy="40"
       r="3"
       style="fill:#b20000" />
    <text
       font-size="18"
       x="56"
       y="46"
       id="text25"
       style="font-size:18px;text-anchor:end;fill:#808080">imm(16bit)</text>
  </g>
  <g
     id="g32"
     transform="matrix(1.8864725,0,0,1.7192285,-74.588562,233.83536)">
    <circle
       id="pin:shft amt(5bit)"
       cx="60"
       cy="60"
       r="3"
       style="fill:#b20000" />
    <text
       font-size="18"
       x="56"
       y="66"
       id="text30"
       style="font-size:18px;text-anchor:end;fill:#808080">shft amt(5bit)</text>
  </g>
  <g
     id="g37"
     transform="matrix(1.8864725,0,0,1.7192285,-73.689262,83.03863)">
    <circle
       id="pin:rs2"
       cx="60"
       cy="80"
       r="3"
       style="fill:#b20000" />
    <text
       font-size="18"
       x="56"
       y="86"
       id="text35"
       style="font-size:18px;text-anchor:end;fill:#808080">rs2</text>
  </g>
  <g
     id="g42"
     transform="matrix(1.8864725,0,0,1.7192285,-73.689262,83.03863)">
    <circle
       id="pin:rs3"
       cx="60"
       cy="100"
       r="3"
       style="fill:#b20000" />
    <text
       font-size="18"
       x="56"
       y="106"
       id="text40"
       style="font-size:18px;text-anchor:end;fill:#808080">rs3</text>
  </g>
  <g
     id="g47"
     transform="matrix(1.8864725,0,0,1.7192285,-72.790062,325.62468)">
    <circle
       id="pin:abs/rel"
       cx="60"
       cy="120"
       r="3"
       style="fill:#b20000" />
    <text
       font-size="18"
       x="49.430031"
       y="104.92728"
       id="text45"
       style="font-size:18px;text-anchor:end;fill:#808080">abs/rel</text>
    <text
       font-size="18"
       x="58.02153"
       y="123.78181"
       style="font-size:18px;text-anchor:end;fill:#808080"
       id="text1067">branch/jal(r)</text>
    <flowRoot
       xml:space="preserve"
       id="flowRoot210"
       style="font-style:normal;font-weight:normal;font-size:40px;line-height:1.25;font-family:sans-serif;letter-spacing:0px;word-spacing:0px;fill:#000000;fill-opacity:1;stroke:none"
       transform="translate(-415.59322,-102.88136)"><flowRegion
         id="flowRegion212"><rect
           id="rect214"
           width="80"
           height="120"
           x="420"
           y="80" /></flowRegion><flowPara
         id="flowPara216"></flowPara></flowRoot>  </g>
  <g
     id="g52"
     transform="matrix(1.8864725,0,0,1.7192285,-72.790062,325.62468)">
    <circle
       id="pin:jmp"
       cx="60"
       cy="140"
       r="3"
       style="fill:#b20000" />
    <text
       font-size="18"
       x="56"
       y="146"
       id="text50"
       style="font-size:18px;text-anchor:end;fill:#808080">jmp</text>
  </g>
  <g
     id="g57"
     transform="matrix(1.8864725,0,0,1.7192285,-72.790062,325.62468)">
    <circle
       id="pin:bgt"
       cx="60"
       cy="160"
       r="3"
       style="fill:#b20000" />
    <text
       font-size="18"
       x="56"
       y="166"
       id="text55"
       style="font-size:18px;text-anchor:end;fill:#808080">bgt</text>
  </g>
  <g
     id="g62"
     transform="matrix(1.8864725,0,0,1.7192285,-72.790062,325.62468)">
    <circle
       id="pin:bgte"
       cx="60"
       cy="180"
       r="3"
       style="fill:#b20000" />
    <text
       font-size="18"
       x="56"
       y="186"
       id="text60"
       style="font-size:18px;text-anchor:end;fill:#808080">bgte</text>
  </g>
  <g
     id="g67"
     transform="matrix(1.8864725,0,0,1.7192285,-72.790062,325.62468)">
    <circle
       id="pin:beq"
       cx="60"
       cy="200"
       r="3"
       style="fill:#b20000" />
    <text
       font-size="18"
       x="56"
       y="206"
       id="text65"
       style="font-size:18px;text-anchor:end;fill:#808080">beq</text>
  </g>
  <g
     id="g72"
     transform="matrix(1.8864725,0,0,1.7192285,-72.790062,325.62468)">
    <circle
       id="pin:blte"
       cx="60"
       cy="220"
       r="3"
       style="fill:#b20000" />
    <text
       font-size="18"
       x="56"
       y="226"
       id="text70"
       style="font-size:18px;text-anchor:end;fill:#808080">blte</text>
  </g>
  <g
     id="g77"
     transform="matrix(1.8864725,0,0,1.7192285,-72.790062,325.62468)">
    <circle
       id="pin:blt"
       cx="60"
       cy="240"
       r="3"
       style="fill:#b20000" />
    <text
       font-size="18"
       x="56"
       y="246"
       id="text75"
       style="font-size:18px;text-anchor:end;fill:#808080">blt</text>
  </g>
  <g
     id="g82"
     transform="matrix(1.8864725,0,0,1.7192285,-72.790062,325.62468)">
    <circle
       id="pin:bne"
       cx="60"
       cy="260"
       r="3"
       style="fill:#b20000" />
    <text
       font-size="18"
       x="56"
       y="266"
       id="text80"
       style="font-size:18px;text-anchor:end;fill:#808080">bne</text>
  </g>
  <g
     id="g87"
     transform="matrix(1.8864725,0,0,1.7192285,-72.790062,325.62468)">
    <circle
       id="pin:JALorJALR"
       cx="60"
       cy="280"
       r="3"
       style="fill:#b20000" />
    <text
       font-size="18"
       x="56"
       y="286"
       id="text85"
       style="font-size:18px;text-anchor:end;fill:#808080">JALorJALR</text>
  </g>
  <g
     id="g92"
     transform="matrix(1.8864725,0,0,1.7192285,-77.394462,397.74474)">
    <circle
       id="pin:add"
       cx="60"
       cy="300"
       r="3"
       style="fill:#b20000" />
    <text
       font-size="18"
       x="56"
       y="306"
       id="text90"
       style="font-size:18px;text-anchor:end;fill:#808080">add</text>
  </g>
  <g
     id="g97"
     transform="matrix(1.8864725,0,0,1.7192285,-77.394462,397.74474)">
    <circle
       id="pin:sub"
       cx="60"
       cy="320"
       r="3"
       style="fill:#b20000" />
    <text
       font-size="18"
       x="56"
       y="326"
       id="text95"
       style="font-size:18px;text-anchor:end;fill:#808080">sub</text>
  </g>
  <g
     id="g102"
     transform="matrix(1.8864725,0,0,1.7192285,-77.394462,397.74474)">
    <circle
       id="pin:adc"
       cx="60"
       cy="340"
       r="3"
       style="fill:#b20000" />
    <text
       font-size="18"
       x="56"
       y="346"
       id="text100"
       style="font-size:18px;text-anchor:end;fill:#808080">adc</text>
  </g>
  <g
     id="g107"
     transform="matrix(1.8864725,0,0,1.7192285,-77.394462,397.74474)">
    <circle
       id="pin:cmp"
       cx="60"
       cy="360"
       r="3"
       style="fill:#b20000" />
    <text
       font-size="18"
       x="56"
       y="366"
       id="text105"
       style="font-size:18px;text-anchor:end;fill:#808080">cmp</text>
  </g>
  <g
     id="g112"
     transform="matrix(1.8864725,0,0,1.7192285,-77.394462,397.74474)">
    <circle
       id="pin:nor"
       cx="60"
       cy="380"
       r="3"
       style="fill:#b20000" />
    <text
       font-size="18"
       x="56"
       y="386"
       id="text110"
       style="font-size:18px;text-anchor:end;fill:#808080">nor</text>
  </g>
  <g
     id="g117"
     transform="matrix(1.8864725,0,0,1.7192285,-77.394462,397.74474)">
    <circle
       id="pin:and"
       cx="60"
       cy="400"
       r="3"
       style="fill:#b20000" />
    <text
       font-size="18"
       x="56"
       y="406"
       id="text115"
       style="font-size:18px;text-anchor:end;fill:#808080">and</text>
  </g>
  <g
     id="g122"
     transform="matrix(1.8864725,0,0,1.7192285,-77.394462,397.74474)">
    <circle
       id="pin:xor"
       cx="60"
       cy="420"
       r="3"
       style="fill:#b20000" />
    <text
       font-size="18"
       x="56"
       y="426"
       id="text120"
       style="font-size:18px;text-anchor:end;fill:#808080">xor</text>
  </g>
  <g
     id="g127"
     transform="matrix(1.8864725,0,0,1.7192285,-77.394462,397.74474)">
    <circle
       id="pin:xnor"
       cx="60"
       cy="440"
       r="3"
       style="fill:#b20000" />
    <text
       font-size="18"
       x="56"
       y="446"
       id="text125"
       style="font-size:18px;text-anchor:end;fill:#808080">xnor</text>
  </g>
  <g
     id="g132"
     transform="matrix(1.8864725,0,0,1.7192285,-77.394462,397.74474)">
    <circle
       id="pin:lsl"
       cx="60"
       cy="460"
       r="3"
       style="fill:#b20000" />
    <text
       font-size="18"
       x="56"
       y="466"
       id="text130"
       style="font-size:18px;text-anchor:end;fill:#808080">lsl</text>
  </g>
  <g
     id="g137"
     transform="matrix(1.8864725,0,0,1.7192285,-77.394462,397.74474)">
    <circle
       id="pin:lsr"
       cx="60"
       cy="480"
       r="3"
       style="fill:#b20000" />
    <text
       font-size="18"
       x="56"
       y="486"
       id="text135"
       style="font-size:18px;text-anchor:end;fill:#808080">lsr</text>
  </g>
  <g
     id="g142"
     transform="matrix(1.8864725,0,0,1.7192285,-77.394462,397.74474)">
    <circle
       id="pin:asr"
       cx="60"
       cy="500"
       r="3"
       style="fill:#b20000" />
    <text
       font-size="18"
       x="56"
       y="506"
       id="text140"
       style="font-size:18px;text-anchor:end;fill:#808080">asr</text>
  </g>
  <g
     id="g147"
     transform="matrix(1.8864725,0,0,1.7192285,-77.394462,397.74474)">
    <circle
       id="pin:lbu"
       cx="60"
       cy="520"
       r="3"
       style="fill:#b20000" />
    <text
       font-size="18"
       x="56"
       y="526"
       id="text145"
       style="font-size:18px;text-anchor:end;fill:#808080">lbu</text>
  </g>
  <g
     id="g152"
     transform="matrix(1.8864725,0,0,1.7192285,-77.394462,397.74474)">
    <circle
       id="pin:lbs"
       cx="60"
       cy="540"
       r="3"
       style="fill:#b20000" />
    <text
       font-size="18"
       x="56"
       y="546"
       id="text150"
       style="font-size:18px;text-anchor:end;fill:#808080">lbs</text>
  </g>
  <g
     id="g157"
     transform="matrix(1.8864725,0,0,1.7192285,-77.394462,397.74474)">
    <circle
       id="pin:lw"
       cx="60"
       cy="560"
       r="3"
       style="fill:#b20000" />
    <text
       font-size="18"
       x="56"
       y="566"
       id="text155"
       style="font-size:18px;text-anchor:end;fill:#808080">lw</text>
  </g>
  <g
     id="g162"
     transform="matrix(1.8864725,0,0,1.7192285,-77.394462,397.74474)">
    <circle
       id="pin:sw"
       cx="60"
       cy="580"
       r="3"
       style="fill:#b20000" />
    <text
       font-size="18"
       x="56"
       y="586"
       id="text160"
       style="font-size:18px;text-anchor:end;fill:#808080">sw</text>
  </g>
  <g
     id="g167"
     transform="matrix(1.8864725,0,0,1.7192285,-77.394462,397.74474)">
    <circle
       id="pin:limm"
       cx="60"
       cy="600"
       r="3"
       style="fill:#b20000" />
    <text
       font-size="18"
       x="56"
       y="606"
       id="text165"
       style="font-size:18px;text-anchor:end;fill:#808080">limm</text>
  </g>
  <g
     id="g172"
     transform="matrix(1.8864725,0,0,1.7192285,-77.394462,397.74474)">
    <circle
       id="pin:mul"
       cx="60"
       cy="620"
       r="3"
       style="fill:#b20000" />
    <text
       font-size="18"
       x="56"
       y="626"
       id="text170"
       style="font-size:18px;text-anchor:end;fill:#808080">mul</text>
  </g>
  <g
     id="g177"
     transform="matrix(1.8864725,0,0,1.7192285,-77.394462,397.74474)">
    <circle
       id="pin:muls"
       cx="60"
       cy="640"
       r="3"
       style="fill:#b20000" />
    <text
       font-size="18"
       x="56"
       y="646"
       id="text175"
       style="font-size:18px;text-anchor:end;fill:#808080">muls</text>
  </g>
  <g
     id="g182"
     transform="matrix(1.8864725,0,0,1.7192285,-77.394462,397.74474)">
    <circle
       id="pin:div"
       cx="60"
       cy="660"
       r="3"
       style="fill:#b20000" />
    <text
       font-size="18"
       x="56"
       y="666"
       id="text180"
       style="font-size:18px;text-anchor:end;fill:#808080">div</text>
  </g>
  <g
     id="g187"
     transform="matrix(1.8864725,0,0,1.7192285,-77.394462,397.74474)">
    <circle
       id="pin:divs"
       cx="60"
       cy="680"
       r="3"
       style="fill:#b20000" />
    <text
       font-size="18"
       x="56"
       y="686"
       id="text185"
       style="font-size:18px;text-anchor:end;fill:#808080">divs</text>
  </g>
  <g
     id="g192"
     transform="matrix(1.8864725,0,0,1.7192285,-77.394462,397.74474)">
    <circle
       id="pin:branch"
       cx="60"
       cy="700"
       r="3"
       style="fill:#b20000" />
    <text
       font-size="18"
       x="56"
       y="706"
       id="text190"
       style="font-size:18px;text-anchor:end;fill:#808080">branch</text>
  </g>
  <g
     id="g197"
     transform="matrix(1.8864725,0,0,1.7192285,-77.394462,397.74474)">
    <circle
       id="pin:jal(r)"
       cx="60"
       cy="720"
       r="3"
       style="fill:#b20000" />
    <text
       font-size="18"
       x="56"
       y="726"
       id="text195"
       style="font-size:18px;text-anchor:end;fill:#808080">jal(r)</text>
  </g>
  <g
     id="g202"
     transform="matrix(1.8864725,0,0,1.7192285,-77.394462,397.74474)">
    <circle
       id="pin:sb"
       cx="60"
       cy="740"
       r="3"
       style="fill:#b20000" />
    <text
       font-size="18"
       x="56"
       y="746"
       id="text200"
       style="font-size:18px;text-anchor:end;fill:#808080">sb</text>
  </g>
  <rect
     style="opacity:1;fill:#ff5555;fill-opacity:0;stroke:#000000;stroke-width:3.64869332;stroke-linejoin:round;stroke-miterlimit:4;stroke-dasharray:none;stroke-opacity:1"
     id="rect224"
     width="58.885437"
     height="120.00005"
     x="-30"
     y="160.00014" />
  <rect
     style="opacity:1;fill:#ff5555;fill-opacity:0;stroke:#000000;stroke-width:7.34899998;stroke-linejoin:round;stroke-miterlimit:4;stroke-dasharray:none;stroke-opacity:1"
     id="rect224-1"
     width="238.88544"
     height="120.00005"
     x="-210"
     y="300.00012" />
  <rect
     style="opacity:1;fill:#ff5555;fill-opacity:0;stroke:#000000;stroke-width:8.29156208;stroke-linejoin:round;stroke-miterlimit:4;stroke-dasharray:none;stroke-opacity:1"
     id="rect224-7"
     width="220"
     height="359.99997"
     x="-190"
     y="460.00012" />
  <rect
     style="opacity:1;fill:#ff5555;fill-opacity:0;stroke:#000000;stroke-width:8.34498405;stroke-linejoin:round;stroke-miterlimit:4;stroke-dasharray:none;stroke-opacity:1"
     id="rect224-7-4"
     width="130"
     height="799.99994"
     x="-100"
     y="900" />
  <rect
     style="opacity:1;fill:#ff5555;fill-opacity:0;stroke:#000000;stroke-width:2.58001614;stroke-linejoin:round;stroke-miterlimit:4;stroke-dasharray:none;stroke-opacity:1"
     id="rect224-6"
     width="58.885441"
     height="60.000053"
     x="-30"
     y="100.00015" />
</svg>
