<?xml version="1.0" encoding="UTF-8" standalone="no"?>
<svg
   xmlns:dc="http://purl.org/dc/elements/1.1/"
   xmlns:cc="http://creativecommons.org/ns#"
   xmlns:rdf="http://www.w3.org/1999/02/22-rdf-syntax-ns#"
   xmlns:svg="http://www.w3.org/2000/svg"
   xmlns="http://www.w3.org/2000/svg"
   xmlns:sodipodi="http://sodipodi.sourceforge.net/DTD/sodipodi-0.dtd"
   xmlns:inkscape="http://www.inkscape.org/namespaces/inkscape"
   viewBox="-80 -80 220 380"
   version="1.1">
  <sodipodi:namedview showgrid="true">
    <inkscape:grid
       type="xygrid"
       empspacing="4"
       spacingx="5"
       spacingy="5" />
  </sodipodi:namedview>
  <rect stroke="black" stroke-width="4" fill="#ffffb4" fill-opacity="0.78431374" x="0" y="-10" width="60" height="240"/>
    <text id="label" fill="#000000" font-size="24" text-anchor="middle" x="30" y="-20">Label</text>
  <g>
    <circle fill="#0000b2" id="pin:a" cx="0" cy="0" r="3"/>
    <text fill="#808080" font-size="18" x="4" y="6">a</text>
  </g>
  <g>
    <circle fill="#0000b2" id="pin:b" cx="0" cy="20" r="3"/>
    <text fill="#808080" font-size="18" x="4" y="26">b</text>
  </g>
  <g>
    <circle fill="#0000b2" id="pin:updatealuflag" cx="0" cy="40" r="3"/>
    <text fill="#808080" font-size="18" x="4" y="46">updatealuflag</text>
  </g>
  <g>
    <circle fill="#0000b2" id="pin:updatecmpflag" cx="0" cy="60" r="3"/>
    <text fill="#808080" font-size="18" x="4" y="66">updatecmpflag</text>
  </g>
  <g>
    <circle fill="#0000b2" id="pin:cin" cx="0" cy="80" r="3"/>
    <text fill="#808080" font-size="18" x="4" y="86">cin</text>
  </g>
  <g>
    <circle fill="#0000b2" id="pin:xnor" cx="0" cy="100" r="3"/>
    <text fill="#808080" font-size="18" x="4" y="106">xnor</text>
  </g>
  <g>
    <circle fill="#0000b2" id="pin:xor" cx="0" cy="120" r="3"/>
    <text fill="#808080" font-size="18" x="4" y="126">xor</text>
  </g>
  <g>
    <circle fill="#0000b2" id="pin:nor" cx="0" cy="140" r="3"/>
    <text fill="#808080" font-size="18" x="4" y="146">nor</text>
  </g>
  <g>
    <circle fill="#0000b2" id="pin:and" cx="0" cy="160" r="3"/>
    <text fill="#808080" font-size="18" x="4" y="166">and</text>
  </g>
  <g>
    <circle fill="#0000b2" id="pin:sub" cx="0" cy="180" r="3"/>
    <text fill="#808080" font-size="18" x="4" y="186">sub</text>
  </g>
  <g>
    <circle fill="#0000b2" id="pin:add" cx="0" cy="200" r="3"/>
    <text fill="#808080" font-size="18" x="4" y="206">add</text>
  </g>
  <g>
    <circle fill="#0000b2" id="pin:adc" cx="0" cy="220" r="3"/>
    <text fill="#808080" font-size="18" x="4" y="226">adc</text>
  </g>
  <g>
    <circle fill="#b20000" id="pin:blt" cx="60" cy="0" r="3"/>
    <text fill="#808080" font-size="18" text-anchor="end" x="56" y="6">blt</text>
  </g>
  <g>
    <circle fill="#b20000" id="pin:beq" cx="60" cy="20" r="3"/>
    <text fill="#808080" font-size="18" text-anchor="end" x="56" y="26">beq</text>
  </g>
  <g>
    <circle fill="#b20000" id="pin:bgt" cx="60" cy="40" r="3"/>
    <text fill="#808080" font-size="18" text-anchor="end" x="56" y="46">bgt</text>
  </g>
  <g>
    <circle fill="#b20000" id="pin:out" cx="60" cy="60" r="3"/>
    <text fill="#808080" font-size="18" text-anchor="end" x="56" y="66">out</text>
  </g>
  <g>
    <circle fill="#b20000" id="pin:coutreg" cx="60" cy="80" r="3"/>
    <text fill="#808080" font-size="18" text-anchor="end" x="56" y="86">coutreg</text>
  </g>
  <g>
    <circle fill="#b20000" id="pin:if0reg" cx="60" cy="100" r="3"/>
    <text fill="#808080" font-size="18" text-anchor="end" x="56" y="106">if0reg</text>
  </g>
  <g>
    <circle fill="#b20000" id="pin:n/a" cx="60" cy="120" r="3"/>
    <text fill="#808080" font-size="18" text-anchor="end" x="56" y="126">n/a</text>
  </g>
</svg>
